<?xml version="1.0" encoding="utf-8"?>
<!-- Generator: Adobe Illustrator 27.0.1, SVG Export Plug-In . SVG Version: 6.00 Build 0)  -->
<svg version="1.1" id="Layer_1" xmlns="http://www.w3.org/2000/svg" xmlns:xlink="http://www.w3.org/1999/xlink" x="0px" y="0px"
	 viewBox="0 0 311.78 80.71" style="enable-background:new 0 0 311.78 80.71;" xml:space="preserve">
<style type="text/css">
	.st0{fill:#D7E700;}
</style>
<g>
	<g>
		<path class="st0" d="M45.6,74.62H33.28l4.01-16.11h-9.14l-4.1,16.11H11.73l4.1-16.11H9.25v-11.9h9.56l2.09-8.21h-6.67v-11.9h9.65
			l4.1-16.11H40.3l-4.1,16.11h9.22l4.09-16.11h12.32l-4.1,16.11h6.58v11.9h-9.56l-2.09,8.21h6.58v11.9H49.6L45.6,74.62z
			 M35.75,72.69h8.33l4-16.11h9.22v-8.04h-7.13l3.07-12.08h9.13v-8.04h-7.13l4.1-16.11h-8.33l-4.09,16.11H33.72l4.1-16.11h-8.33
			l-4.1,16.11h-9.22v8.04h7.22l-3.08,12.08h-9.13v8.04h7.13l-4.1,16.11h8.33l4.1-16.11h13.12L35.75,72.69z M41.85,48.54H28.65
			l3.07-12.08h13.21L41.85,48.54z M31.13,46.61h9.22l2.09-8.21h-9.22L31.13,46.61z"/>
	</g>
	<g>
		<path class="st0" d="M88.72,74.62H73.08V10.38h49.38v15.64H88.72v8.66h28.57v15.64H88.72V74.62z M75.01,72.69h11.77v-24.3h28.57
			V36.61H86.79V24.09h33.74V12.31H75.01V72.69z"/>
	</g>
	<g>
		<path class="st0" d="M180.15,74.62h-49.38V10.38h49.38v15.64h-33.74v8.66h28.57v15.64h-28.57v8.66h33.74V74.62z M132.7,72.69
			h45.51V60.92h-33.74V48.39h28.57V36.61h-28.57V24.09h33.74V12.31H132.7V72.69z"/>
	</g>
	<g>
		<path class="st0" d="M238.99,74.62h-52.32v-9.78c0-13.08,6.14-20.6,20.53-25.14c1.63-0.52,9.42-3.17,13.65-4.79
			c2.77-1.07,4.27-2.11,4.27-4.53c0-5.12-8.68-6.24-12.03-6.24c-5.51,0-9.29,1.31-11.25,3.89l-0.43,0.57l-14.59-5.44l0.49-0.96
			c4.63-9.16,13.06-13.62,25.79-13.62c10.24,0,18.03,3.11,23.17,9.25c2.94,3.51,4.5,7.85,4.5,12.55c0,12.32-8.13,16.78-14.25,19.07
			c-4.75,1.88-9.64,3.51-14.36,5.09c-4.98,1.68-7.23,3.18-8.34,4.44h35.17V74.62z M188.61,72.69h48.45V60.92h-36.48l0.6-1.36
			c1.21-2.75,4.31-4.8,10.37-6.85c4.7-1.57,9.56-3.19,14.28-5.06c6.07-2.27,13.01-6.27,13.01-17.26c0-4.24-1.4-8.15-4.05-11.31
			c-4.76-5.68-12.05-8.56-21.69-8.56c-11.47,0-19.18,3.8-23.55,11.6l11.23,4.18c2.44-2.75,6.48-4.09,12.33-4.09
			c4.83,0,13.96,1.71,13.96,8.18c0,3.87-2.85,5.3-5.51,6.33c-4.27,1.63-12.12,4.31-13.77,4.83c-13.62,4.3-19.17,11.04-19.17,23.29
			V72.69z"/>
	</g>
	<g>
		<path class="st0" d="M272.22,76.4c-12.42,0-22.1-5.11-25.9-13.66l-0.42-0.94l14.69-5.43l0.42,0.65c2.28,3.55,9.15,3.83,11.2,3.83
			c4.16,0,12.03-1.3,12.03-6.24c0-2.32-2-4.28-4.37-4.28h-14.85V34.68h14.85c2.41,0,4.37-1.92,4.37-4.29
			c0-5.12-8.68-6.24-12.03-6.24c-3.28,0-9.09,0.5-11.2,3.82l-0.42,0.66l-14.71-5.44l0.44-0.95c4.02-8.67,13.45-13.65,25.89-13.65
			c8.89,0,16.2,2.46,21.14,7.12c4.15,3.85,6.54,9.2,6.54,14.68c0,4.41-1.44,8.58-4.18,12.11c2.7,3.49,4.18,7.76,4.18,12.11
			c0,5.55-2.32,10.77-6.54,14.68C288.42,73.94,281.11,76.4,272.22,76.4z M248.53,62.89c5.51,10.72,19.45,11.58,23.68,11.58
			c8.39,0,15.24-2.28,19.81-6.59c3.82-3.55,5.93-8.26,5.93-13.27c0-4.15-1.5-8.23-4.23-11.49l-0.52-0.62l0.52-0.62
			c2.76-3.3,4.22-7.27,4.22-11.48c0-4.94-2.16-9.77-5.92-13.27c-4.58-4.32-11.43-6.6-19.82-6.6c-5.36,0-18.15,1.15-23.67,11.58
			l11.3,4.18c2.69-3.35,8.14-4.08,12.37-4.08c4.83,0,13.96,1.71,13.96,8.18c0,3.43-2.83,6.22-6.31,6.22h-12.92v11.77h12.92
			c3.48,0,6.31,2.79,6.31,6.22c0,6.46-8.78,8.18-13.96,8.18c-2.79,0-9.36-0.41-12.37-4.08L248.53,62.89z"/>
	</g>
</g>
</svg>
