<?xml version="1.0" encoding="utf-8"?>
<!-- Generator: Adobe Illustrator 25.4.1, SVG Export Plug-In . SVG Version: 6.00 Build 0)  -->
<svg version="1.1" id="Camada_1" xmlns="http://www.w3.org/2000/svg" xmlns:xlink="http://www.w3.org/1999/xlink" x="0px" y="0px"
	 viewBox="0 0 428.5 211.4" style="enable-background:new 0 0 428.5 211.4;" xml:space="preserve">
<style type="text/css">
	.st0{fill:#FFFFFF;}
</style>
<g>
	<polygon class="st0" points="164.7,3.8 160.6,24.1 290.6,24.1 294.7,3.8 	"/>
	<polygon class="st0" points="133.6,152.9 263.6,152.9 259.5,173.2 129.5,173.2 	"/>
	<polygon class="st0" points="158,36.9 288,36.9 283.7,57.2 153.6,57.2 	"/>
	<polygon class="st0" points="126.9,185.7 256.9,185.7 252.6,206 122.5,206 	"/>
	<g>
		<path class="st0" d="M315.9,127v-14.5h8.6l-2.4-28.1l-6.3,11.9V70.3h22l12.7,69.1h-21.8l-2-12.5H315.9z M426.5,70.3l-3,14h-33.1
			l-3,13.8h30.9l-2.8,14.2h-30.9l-3,13.6h33.3l-2.8,13.4h-52.9l14.5-69.1H426.5z M315.9,70.3v25.9l-8.6,16.2h8.6V127h-16l-7.4,12.5
			h-17.9v-3.7l40-65.5H315.9z M274.6,93.9c0.6-1.7,1.3-3.5,1.7-5.6c1.1-5,0.4-8.9-1.7-11.7V93.9z M274.6,76.6v17.3
			c-1.5,3-3.2,5.2-5.8,6.9c-3.7,2.6-8,4.1-12.7,5c6.7,0.2,10.4,2.6,11.2,6.9c0.7,4.1,0.9,8.8,0.2,14c-0.2,2.4-0.4,5-0.6,7.1
			c0,2.2,0,4.1,0.2,5.8l-21.2-0.2c-0.2-1.1-0.2-2.4,0-4.1c0.2-2.4,0.7-5,1.1-7.4c0.5-3.7,0.5-7.1,0.2-10.2c-0.2-1.7-0.9-2.8-2.2-3.7
			V99.5c1.9,0,3.9-0.4,5.8-1.3c2.2-1.1,3.7-3,4.3-5.8c0.4-2.8,0-4.8-1.7-6c-1.7-1.3-4.1-1.9-7.3-1.9H245v-14h7.1
			c6.9,0.2,12.5,0.6,19,3.7C272.5,74.7,273.8,75.5,274.6,76.6 M274.6,135.8l-2.4,3.7h2.4V135.8z M245,70.3v14h-6.9l-3.2,15.3h7.3
			c1.1,0,1.9,0,2.8-0.2v14.7c-0.9-0.7-2.4-0.9-4.1-0.9h-8.9l-5.6,26.1h-19.6l14.5-69.1H245z M169.4,139.7v-13.6c2.8,0,5-0.4,6.7-1.5
			c1.5-1.3,2.6-2.4,3.2-3.7c1.1-2.8,0.7-5.4-1.3-7.6c-1.1-1.1-2.8-1.5-5-1.5h-3.7V97.6h5.2c3,0,5.2-0.7,6.7-1.7
			c1.5-1.1,2.6-2.8,3-5.2c0.4-1.9,0-3.5-1.3-4.8c-1.1-1.3-3-1.9-5.6-1.9h-8V70.3h12.3c1.3-0.2,3-0.2,5.4,0c2.4,0.4,4.8,0.9,7.3,1.5
			c3,1.1,5.6,2.4,8.2,5c2.8,3.2,3,8,2.2,12.1c-0.6,3.9-2.6,7.3-6.1,10.2c-3.2,2.6-7.1,4.1-11.9,4.5c3.9,1.1,7.3,2.8,10.1,5.4
			c3,2.6,3.9,6.5,2.8,11.9c-1.5,6.7-5,11.7-10.4,14.5C184.5,138,177.9,139.5,169.4,139.7 M169.4,70.3V84h-1.7l-2.8,13.6h4.5v14.2
			h-7.6l-3,14.3h10.6v13.6h-2.2l-29.8-0.2v-5l13.4-64.2H169.4z M137.5,75.3l1.1-5h-1.1V75.3z M2.4,117.2h19.4
			c-0.2,1.1-0.4,2.4-0.2,3.7c0.2,1.5,0.8,2.8,2.1,4.1c1.3,1.3,3.5,1.9,6.7,1.9c3.5,0,6.1-0.7,8.2-1.9c2.1-1.5,3.2-3,3.7-4.5
			c0.2-0.7,0-1.3,0-1.9c-0.2-1.5-1.1-2.8-2.6-4.1c-1.5-1.3-4.1-1.9-6.9-2.6c-10.2-1.9-16.6-4.7-19.9-7.8c-3.2-2.8-4.5-7.3-3.7-13.4
			c1.3-7.6,5.4-12.7,12.1-16.4c6.7-3.7,14-5.4,22-5.4c11.2,0.4,18.2,2.6,21,6.7c2.8,4.1,3.5,9.1,2.4,15.1H47.1
			c0.4-2.2,0-4.1-1.1-5.4c-1.3-1.5-3.5-2.2-6.3-2.2c-2.6,0-4.8,0.6-6.7,1.9c-1.7,1.1-2.8,2.6-3,3.9c-0.2,0.2-0.2,0.4-0.2,0.6
			c-0.2,1.5,0.4,2.8,1.5,4.1c1.3,1.3,3,2,5.6,2.4c1.5,0.2,2.8,0.4,4.5,0.9c1.5,0.2,3,0.7,4.5,0.9c5.2,1.3,9.5,3.5,13.4,6.3
			c3.9,2.8,5.2,7.6,3.9,14.1c-1.7,8.2-6,14-12.5,17.7c-6.7,3.5-14.3,5.4-22.5,5.4c-10.2,0-17.5-2.1-21.6-6
			C2.6,131.1,1.1,125,2.4,117.2 M137.5,70.3v5l-1.9,9.1h-33.3l-2.8,13.8h30.9l-3,14.2H96.4l-2.8,13.6h33.3l-2.8,13.4H71.1l14.5-69.1
			H137.5z M137.5,134.5l-1.1,5h1.1V134.5z"/>
	</g>
</g>
</svg>
